<?xml version="1.0" standalone="no"?>
<!DOCTYPE svg PUBLIC "-//W3C//DTD SVG 20010904//EN"
 "http://www.w3.org/TR/2001/REC-SVG-20010904/DTD/svg10.dtd">
<svg version="1.0" xmlns="http://www.w3.org/2000/svg"
 width="958.000000pt" height="958.000000pt" viewBox="0 0 958.000000 958.000000"
 preserveAspectRatio="xMidYMid meet">
<metadata>
Created by potrace 1.14, written by Peter Selinger 2001-2017
</metadata>
<g transform="translate(0.000000,958.000000) scale(0.100000,-0.100000)"
fill="#000000" stroke="none">
<path d="M4540 9576 c-3 -3 -57 -10 -120 -16 -829 -79 -1559 -361 -2225 -860
-330 -247 -650 -566 -904 -899 -528 -695 -871 -1550 -971 -2421 -6 -58 -15
-133 -19 -168 -5 -42 -4 -65 3 -70 14 -9 625 -12 667 -3 l33 7 17 144 c80 687
307 1311 682 1875 522 785 1314 1362 2175 1585 324 84 561 114 912 114 351 0
580 -28 895 -110 207 -53 498 -160 656 -240 l46 -23 74 78 c164 174 261 293
303 372 14 25 36 60 50 76 20 24 23 33 13 41 -27 22 -286 145 -425 200 -528
213 -1008 309 -1592 319 -146 2 -268 2 -270 -1z"/>
<path d="M7532 8519 c-13 -22 -38 -57 -56 -77 -18 -20 -46 -61 -62 -91 -16
-30 -50 -75 -75 -100 -25 -25 -56 -62 -69 -81 -13 -19 -51 -63 -84 -98 l-60
-63 74 -66 c380 -335 705 -761 938 -1228 230 -462 363 -917 429 -1475 24 -203
23 -695 -1 -905 -56 -493 -182 -955 -368 -1348 -48 -100 -50 -109 -37 -134 8
-15 34 -40 59 -57 24 -17 65 -49 90 -72 25 -22 72 -59 105 -81 34 -23 67 -48
75 -58 7 -9 32 -26 54 -37 23 -11 66 -40 98 -64 31 -24 60 -44 65 -44 9 0 107
195 168 335 147 334 267 728 335 1100 64 352 80 535 80 915 0 301 -8 436 -40
676 -143 1061 -630 2061 -1361 2793 -122 122 -317 301 -328 301 -3 0 -16 -18
-29 -41z"/>
<path d="M4635 7064 c-16 -2 -73 -9 -125 -15 -52 -6 -154 -26 -226 -44 -785
-201 -1376 -846 -1513 -1653 -41 -244 -38 -483 11 -744 l21 -116 -105 -434
-104 -433 278 -3 278 -2 0 -430 0 -430 510 0 510 0 0 -325 0 -325 835 0 835 0
0 569 0 569 63 39 c99 63 256 193 352 295 288 302 471 668 546 1093 19 107 23
166 23 335 0 232 -19 372 -79 581 -193 669 -737 1212 -1400 1399 -230 64 -526
95 -710 74z m355 -1011 c0 -6 -323 -1339 -341 -1405 l-10 -38 -100 0 c-91 0
-100 2 -95 18 3 9 80 328 171 707 91 380 168 698 171 708 5 15 19 17 105 17
54 0 99 -3 99 -7z m-650 -302 l0 -168 -320 -123 c-176 -68 -320 -126 -320
-129 0 -4 144 -62 320 -130 l320 -124 0 -169 c0 -161 -1 -169 -19 -163 -10 3
-254 104 -542 224 l-524 218 -3 144 -2 144 532 222 c293 122 539 222 546 222
9 1 12 -39 12 -168z m1303 -53 l537 -223 -2 -144 -3 -144 -524 -218 c-288
-120 -532 -221 -542 -224 -18 -6 -19 2 -19 163 l0 169 320 124 c176 68 320
126 320 130 0 3 -144 61 -320 129 l-320 123 0 168 c0 93 3 169 8 169 4 0 249
-100 545 -222z"/>
<path d="M360 4260 c-51 -6 -48 6 -30 -135 71 -561 256 -1147 524 -1660 646
-1235 1785 -2112 3081 -2374 144 -29 260 -46 485 -73 60 -8 219 -13 370 -13
254 0 322 5 590 41 923 123 1807 570 2495 1260 141 140 355 383 355 402 0 5
-31 28 -68 50 -38 23 -75 48 -82 57 -7 9 -45 35 -84 57 -39 23 -93 63 -121 88
-27 26 -60 53 -73 59 -12 7 -47 32 -78 57 -54 45 -57 46 -73 28 -10 -11 -66
-74 -125 -141 -479 -547 -1136 -953 -1841 -1138 -313 -82 -538 -109 -900 -109
-290 0 -409 10 -650 55 -869 160 -1682 664 -2256 1399 -441 566 -737 1264
-843 1988 -7 51 -16 95 -19 99 -7 7 -596 10 -657 3z"/>
</g>
</svg>
