<?xml version="1.0" standalone="no"?>
<!DOCTYPE svg PUBLIC "-//W3C//DTD SVG 20010904//EN"
 "http://www.w3.org/TR/2001/REC-SVG-20010904/DTD/svg10.dtd">
<svg version="1.0" xmlns="http://www.w3.org/2000/svg"
 width="360.000000pt" height="360.000000pt" viewBox="0 0 360.000000 360.000000"
 preserveAspectRatio="xMidYMid meet">
<metadata>
Created by potrace 1.14, written by Peter Selinger 2001-2017
</metadata>
<g transform="translate(0.000000,360.000000) scale(0.100000,-0.100000)"
fill="#000000" stroke="none">
<path d="M0 1800 l0 -1800 1800 0 1800 0 0 1800 0 1800 -1800 0 -1800 0 0
-1800z m1587 1728 c-3 -7 -5 -2 -5 12 0 14 2 19 5 13 2 -7 2 -19 0 -25z m390
0 c-3 -8 -6 -5 -6 6 -1 11 2 17 5 13 3 -3 4 -12 1 -19z m-150 -20 c-3 -8 -6
-5 -6 6 -1 11 2 17 5 13 3 -3 4 -12 1 -19z m-550 -35 c-3 -10 -5 -2 -5 17 0
19 2 27 5 18 2 -10 2 -26 0 -35z m1160 -15 c-3 -7 -5 -2 -5 12 0 14 2 19 5 13
2 -7 2 -19 0 -25z m-860 -25 c-3 -10 -5 -4 -5 12 0 17 2 24 5 18 2 -7 2 -21 0
-30z m436 -10 c-7 -2 -19 -2 -25 0 -7 3 -2 5 12 5 14 0 19 -2 13 -5z m517 3
c0 -2 -8 -10 -17 -17 -16 -13 -17 -12 -4 4 13 16 21 21 21 13z m-1243 -28 c-3
-8 -6 -5 -6 6 -1 11 2 17 5 13 3 -3 4 -12 1 -19z m990 -25 c-3 -10 -5 -4 -5
12 0 17 2 24 5 18 2 -7 2 -21 0 -30z m-1367 -48 c13 -14 21 -25 18 -25 -2 0
-15 11 -28 25 -13 14 -21 25 -18 25 2 0 15 -11 28 -25z m820 -37 c0 -24 5 -50
10 -58 11 -18 13 -11 14 50 1 45 1 45 39 48 l37 3 0 -94 c0 -52 3 -115 6 -141
l7 -46 -42 0 -41 0 0 55 c0 30 -4 55 -10 55 -6 0 -10 -27 -10 -60 l0 -60 -34
0 -33 0 -6 83 c-4 45 -7 108 -7 139 0 54 1 57 28 61 15 2 30 5 35 6 4 0 7 -18
7 -41z m230 10 c0 -16 -5 -19 -22 -14 -13 3 -29 6 -35 6 -7 0 -13 8 -13 18 0
15 6 17 35 14 27 -3 35 -9 35 -24z m500 28 c0 -2 -8 -10 -17 -17 -16 -13 -17
-12 -4 4 13 16 21 21 21 13z m-510 -94 c0 -22 -3 -74 -7 -116 l-6 -77 -34 3
c-18 2 -34 5 -35 8 0 3 3 53 7 113 l7 107 34 0 c33 0 34 -1 34 -38z m850 34
c0 -2 -8 -10 -17 -17 -16 -13 -17 -12 -4 4 13 16 21 21 21 13z m-727 -18 c12
-7 31 -11 42 -10 47 5 50 -9 27 -118 -25 -124 -39 -144 -100 -137 -45 5 -82
30 -82 55 0 11 8 13 32 8 18 -3 36 -12 40 -19 6 -9 10 -9 18 3 15 22 12 29 -9
23 -10 -3 -28 0 -40 6 -26 14 -28 64 -6 136 19 64 37 76 78 53z m230 -24 c-1
-5 -4 -16 -8 -24 -4 -11 4 -18 27 -25 45 -14 47 -44 7 -147 -18 -45 -33 -84
-34 -86 -2 -2 -65 19 -65 22 0 1 14 37 30 79 17 43 30 85 30 93 0 31 -18 2
-50 -80 l-32 -84 -29 10 c-16 5 -29 16 -29 23 0 8 15 51 33 97 19 46 39 100
46 120 12 37 12 37 44 24 18 -7 31 -17 30 -22z m-779 -6 c19 -30 57 -181 48
-190 -4 -4 -21 -9 -37 -11 -17 -2 -39 -8 -49 -14 -27 -15 -56 -4 -67 24 -16
44 -11 71 21 93 30 21 41 62 20 75 -6 4 -10 -6 -10 -24 0 -25 -5 -32 -26 -37
-17 -4 -29 -2 -35 7 -15 24 -10 39 20 70 38 37 93 41 115 7z m-661 -68 c-2 -2
-23 16 -46 40 l-42 44 46 -40 c25 -21 44 -41 42 -44z m1897 77 c0 -2 -17 -19
-37 -38 l-38 -34 34 38 c33 34 41 42 41 34z m-1401 -133 c48 -112 50 -135 14
-163 -44 -36 -113 -40 -113 -7 0 17 45 37 65 30 17 -7 18 -3 9 21 -6 15 -8 15
-24 0 -41 -38 -86 2 -121 107 -12 38 -12 42 10 60 14 11 31 16 42 13 11 -4 19
-2 19 5 0 9 32 27 51 29 4 1 25 -42 48 -95z m-749 62 c0 -2 -8 -10 -17 -17
-16 -13 -17 -12 -4 4 13 16 21 21 21 13z m1966 -52 c19 -9 42 -30 50 -46 14
-27 14 -32 -1 -54 -15 -24 -17 -24 -45 -8 -24 14 -26 20 -17 35 15 25 -1 39
-18 16 -12 -16 -11 -26 6 -65 23 -54 19 -89 -17 -127 -21 -22 -31 -26 -57 -21
-34 7 -73 39 -82 67 -6 17 19 79 31 79 2 0 16 -7 29 -16 20 -13 23 -20 15 -34
-6 -10 -10 -23 -10 -29 0 -18 19 -12 30 8 8 15 5 32 -10 71 -18 46 -19 53 -5
80 13 24 50 60 63 60 2 0 19 -7 38 -16z m-1806 -18 c0 -2 -8 -10 -17 -17 -16
-13 -17 -12 -4 4 13 16 21 21 21 13z m405 -81 c30 -47 55 -90 55 -94 0 -9 -50
-45 -54 -39 -2 2 -24 38 -50 81 -43 68 -66 93 -66 69 0 -4 23 -43 51 -86 28
-43 49 -79 47 -80 -2 -1 -15 -10 -30 -19 l-26 -16 -62 96 -62 96 23 18 c13 10
28 17 34 15 5 -1 18 8 28 21 33 41 53 30 112 -62z m-666 42 c-2 -1 -15 -11
-29 -22 l-25 -20 19 23 c11 12 24 22 29 22 6 0 8 -1 6 -3z m411 -58 c0 -4 -12
-14 -26 -24 -22 -14 -28 -15 -35 -4 -6 10 0 21 18 36 25 21 42 17 43 -8z
m-419 -26 c13 -16 12 -17 -3 -4 -17 13 -22 21 -14 21 2 0 10 -8 17 -17z m533
-104 l45 -56 -25 -24 c-29 -27 -22 -32 -113 81 l-61 75 27 23 28 22 27 -32
c15 -18 48 -58 72 -89z m1700 62 c31 -27 38 -58 20 -93 l-16 -30 -23 22 c-20
18 -22 27 -14 42 6 11 8 22 5 26 -8 7 -95 -89 -96 -105 0 -18 10 -16 32 4 17
15 19 15 38 -2 l20 -18 -22 -24 c-28 -30 -59 -29 -97 3 -49 41 -43 73 27 144
61 63 82 68 126 31z m-1820 -85 l90 -97 -26 -25 -25 -25 -96 102 -96 102 22
23 c12 13 26 22 31 21 6 -2 50 -47 100 -101z m1031 59 c481 -73 856 -437 940
-915 19 -107 19 -103 -7 -94 -25 8 -50 29 -42 37 9 9 -16 128 -43 207 -90 265
-288 493 -528 609 -173 84 -290 111 -476 111 -314 0 -564 -108 -779 -336 -185
-197 -290 -463 -290 -736 l0 -88 78 -2 77 -2 -72 -3 c-40 -2 -73 -8 -73 -13 0
-30 33 -169 55 -233 82 -240 287 -477 508 -589 50 -25 61 -27 75 -16 15 11 15
11 5 -3 -14 -17 -7 -21 127 -59 171 -48 402 -52 550 -9 79 24 179 62 176 68
-2 3 6 7 18 7 45 3 181 99 282 199 166 166 257 332 303 553 15 75 14 95 -5 88
-8 -3 -12 -2 -9 4 3 6 11 10 16 10 6 0 21 12 34 28 13 15 27 24 31 20 4 -4 2
-47 -5 -95 -68 -491 -450 -878 -941 -954 -119 -18 -335 -6 -450 25 -181 50
-344 142 -482 274 -182 174 -292 384 -333 632 -94 582 301 1149 880 1264 149
29 241 32 380 11z m-1554 -42 c13 -16 12 -17 -3 -4 -10 7 -18 15 -18 17 0 8 8
3 21 -13z m2501 -20 c23 -21 23 -35 -3 -51 -20 -13 -20 -13 5 -33 47 -37 40
-47 -116 -178 -16 -12 -20 -12 -38 4 -29 26 -25 37 28 77 26 20 58 48 71 62
43 46 2 28 -71 -31 l-70 -57 -20 23 c-10 13 -17 28 -16 32 3 8 200 169 207
169 2 0 13 -7 23 -17z m248 -6 c0 -2 -10 -12 -22 -23 l-23 -19 19 23 c18 21
26 27 26 19z m-2286 -87 c42 -33 76 -63 76 -65 0 -15 -33 -54 -41 -49 -5 3 -9
-3 -9 -13 0 -42 -42 -55 -85 -27 -32 21 -37 39 -23 85 10 35 9 41 -8 53 -27
20 -42 6 -15 -15 l21 -17 -23 -28 -23 -27 -23 29 c-15 20 -20 36 -16 54 6 28
58 80 80 80 7 0 48 -27 89 -60z m2406 -5 c-24 -25 -46 -45 -49 -45 -3 0 15 20
39 45 24 25 46 45 49 45 3 0 -15 -20 -39 -45z m-2950 -20 c13 -14 21 -25 18
-25 -2 0 -15 11 -28 25 -13 14 -21 25 -18 25 2 0 15 -11 28 -25z m3065 -25 c3
-6 -1 -7 -9 -4 -18 7 -21 14 -7 14 6 0 13 -4 16 -10z m-2659 -91 c93 -53 110
-98 58 -154 -29 -32 -56 -32 -113 1 -99 57 -116 100 -62 155 37 36 51 36 117
-2z m2280 4 c33 -35 40 -68 21 -97 -19 -28 -118 -86 -147 -86 -45 0 -95 83
-73 119 13 21 133 91 156 91 10 0 29 -12 43 -27z m-1379 11 c-3 -3 -12 -4 -19
-1 -8 3 -5 6 6 6 11 1 17 -2 13 -5z m346 -11 c-7 -2 -19 -2 -25 0 -7 3 -2 5
12 5 14 0 19 -2 13 -5z m-468 -31 c-3 -3 -11 0 -18 7 -9 10 -8 11 6 5 10 -3
15 -9 12 -12z m282 -4 c-3 -8 -6 -5 -6 6 -1 11 2 17 5 13 3 -3 4 -12 1 -19z
m90 16 c-3 -3 -12 -4 -19 -1 -8 3 -5 6 6 6 11 1 17 -2 13 -5z m-192 -34 c15
-67 81 -76 240 -32 108 30 221 33 231 7 3 -7 -13 -52 -35 -101 -48 -107 -51
-105 109 -74 148 28 310 28 310 -1 0 -4 -20 -22 -44 -38 -52 -36 -134 -126
-148 -160 -29 -78 35 -104 215 -86 72 7 77 6 77 -12 0 -32 -37 -61 -136 -109
-104 -49 -111 -61 -61 -98 30 -22 88 -26 267 -16 69 3 148 -5 160 -17 9 -9
-133 -132 -175 -152 -22 -11 -81 -27 -132 -36 -50 -8 -106 -22 -125 -29 -40
-17 -73 -51 -63 -66 10 -17 76 -46 133 -60 28 -6 52 -16 52 -21 0 -22 -44 -93
-80 -129 -22 -22 -58 -49 -82 -61 -56 -29 -151 -36 -201 -16 -20 9 -37 12 -37
8 0 -5 16 -29 35 -54 19 -25 35 -48 35 -51 0 -3 -10 -6 -22 -6 -13 0 -53 -7
-90 -16 -63 -15 -138 -13 -138 4 0 4 -3 16 -6 28 -7 27 38 82 87 104 l38 16
-30 28 c-22 21 -29 24 -29 11 0 -20 -58 -45 -185 -78 -132 -34 -227 -46 -349
-44 -88 2 -101 4 -104 20 -4 19 63 55 128 68 34 7 35 7 5 8 -16 0 -69 -10
-116 -24 -80 -24 -93 -25 -196 -17 -131 10 -173 28 -255 107 -49 46 -58 60
-58 90 0 41 22 47 62 16 41 -33 105 -43 168 -27 l55 14 -53 1 c-36 1 -69 10
-105 28 -33 17 -76 28 -117 32 -61 6 -65 8 -68 33 -2 14 3 32 11 39 8 7 13 20
12 29 -1 8 0 9 2 3 3 -7 10 -13 17 -13 6 0 44 -16 85 -35 84 -40 95 -41 176
-16 l60 18 -76 -5 c-65 -4 -79 -2 -95 14 -11 11 -27 18 -37 16 -9 -2 -31 6
-48 18 -54 39 -63 108 -11 95 22 -5 24 -4 13 9 -10 12 -9 17 8 26 16 8 21 8
21 -2 0 -10 2 -10 9 1 12 19 45 6 90 -35 l37 -33 66 9 c126 18 146 40 128 138
-14 75 -20 77 -20 6 0 -32 -4 -64 -8 -70 -9 -13 -102 -34 -153 -34 -67 0 -97
48 -62 100 14 22 13 22 -15 -4 -37 -34 -42 -22 -16 40 22 53 14 110 -31 224
-39 101 -43 156 -12 188 14 13 20 13 55 -1 60 -24 79 -9 127 101 22 50 48 100
58 109 17 17 19 17 42 -9 l24 -28 83 50 c91 56 181 89 245 89 38 1 42 -1 48
-29z m-435 -3 c0 -2 -17 -19 -37 -38 l-38 -34 34 38 c33 34 41 42 41 34z
m-939 -24 c13 -16 12 -17 -3 -4 -10 7 -18 15 -18 17 0 8 8 3 21 -13z m-6 -33
c-3 -5 -12 -10 -18 -10 -7 0 -6 4 3 10 19 12 23 12 15 0z m269 -50 c23 -8 24
-11 13 -40 -12 -32 -15 -33 -76 -14 -17 5 -23 4 -19 -6 7 -21 169 -83 182 -70
7 7 0 14 -22 22 -35 14 -36 16 -22 52 13 34 35 33 71 -3 33 -34 35 -50 14 -96
-27 -55 -52 -59 -152 -23 -47 17 -94 39 -104 49 -23 23 -24 60 -4 99 26 50 51
56 119 30z m1809 -7 c-7 -2 -21 -2 -30 0 -10 3 -4 5 12 5 17 0 24 -2 18 -5z
m715 -15 c27 -30 35 -67 20 -97 -14 -27 -113 -71 -159 -71 -56 0 -93 96 -51
133 23 21 111 56 143 56 14 1 35 -9 47 -21z m-593 -16 c-3 -3 -11 0 -18 7 -9
10 -8 11 6 5 10 -3 15 -9 12 -12z m942 -8 c-3 -3 -12 -4 -19 -1 -8 3 -5 6 6 6
11 1 17 -2 13 -5z m74 -47 c-10 -9 -11 -8 -5 6 3 10 9 15 12 12 3 -3 0 -11 -7
-18z m-3274 -3 c-3 -3 -12 -4 -19 -1 -8 3 -5 6 6 6 11 1 17 -2 13 -5z m2343
-7 c0 -1 -24 -25 -52 -52 l-53 -50 50 53 c46 48 55 57 55 49z m-1480 -27 c0
-5 -5 -10 -11 -10 -5 0 -7 5 -4 10 3 6 8 10 11 10 2 0 4 -4 4 -10z m2273 -45
c-3 -9 -8 -14 -10 -11 -3 3 -2 9 2 15 9 16 15 13 8 -4z m-168 -26 c4 -17 5
-32 3 -33 -4 -4 -251 -66 -260 -66 -3 0 -11 14 -17 30 -12 36 -21 31 121 70
137 37 145 37 153 -1z m-2288 -61 c-2 -18 -4 -6 -4 27 0 33 2 48 4 33 2 -15 2
-42 0 -60z m2541 65 c-10 -2 -26 -2 -35 0 -10 3 -2 5 17 5 19 0 27 -2 18 -5z
m-3275 -40 c-7 -2 -19 -2 -25 0 -7 3 -2 5 12 5 14 0 19 -2 13 -5z m2270 -18
c-3 -9 -8 -14 -10 -11 -3 3 -2 9 2 15 9 16 15 13 8 -4z m-1526 -77 c-3 -7 -5
-2 -5 12 0 14 2 19 5 13 2 -7 2 -19 0 -25z m1540 16 c-3 -3 -12 -4 -19 -1 -8
3 -5 6 6 6 11 1 17 -2 13 -5z m81 -1 c-10 -2 -28 -2 -40 0 -13 2 -5 4 17 4 22
1 32 -1 23 -4z m932 -26 l65 -4 -69 1 c-53 1 -70 5 -73 16 -3 11 -2 11 4 3 5
-7 38 -14 73 -16z m-3387 -44 c-7 -2 -19 -2 -25 0 -7 3 -2 5 12 5 14 0 19 -2
13 -5z m902 -80 c5 -19 1 -25 -19 -33 -30 -11 -32 -26 -9 -75 20 -42 9 -59
-17 -25 -36 47 -37 131 -3 166 13 13 18 13 28 2 7 -7 16 -23 20 -35z m2512
-29 c-3 -3 -12 -4 -19 -1 -8 3 -5 6 6 6 11 1 17 -2 13 -5z m-3360 -26 c-3 -8
-6 -5 -6 6 -1 11 2 17 5 13 3 -3 4 -12 1 -19z m690 -5 c-20 -2 -52 -2 -70 0
-17 2 0 4 38 4 39 0 53 -2 32 -4z m167 -2 c3 -4 3 -11 0 -14 -8 -8 -34 3 -34
14 0 11 27 12 34 0z m1719 2 c-24 -2 -62 -2 -85 0 -24 2 -5 4 42 4 47 0 66 -2
43 -4z m-2656 -19 c-3 -3 -12 -4 -19 -1 -8 3 -5 6 6 6 11 1 17 -2 13 -5z
m3376 -74 c-3 -11 -7 -20 -9 -20 -2 0 -4 9 -4 20 0 11 4 20 9 20 5 0 7 -9 4
-20z m114 -116 c-3 -3 -12 -4 -19 -1 -8 3 -5 6 6 6 11 1 17 -2 13 -5z m-3440
-50 c-3 -3 -12 -4 -19 -1 -8 3 -5 6 6 6 11 1 17 -2 13 -5z m3416 -111 c-7 -2
-19 -2 -25 0 -7 3 -2 5 12 5 14 0 19 -2 13 -5z m-3395 -40 c-16 -2 -40 -2 -55
0 -16 2 -3 4 27 4 30 0 43 -2 28 -4z m702 -18 c13 -14 21 -25 18 -25 -2 0 -15
11 -28 25 -13 14 -21 25 -18 25 2 0 15 -11 28 -25z m54 -115 c5 -17 4 -20 -2
-10 -5 8 -13 26 -16 40 -5 17 -4 20 2 10 5 -8 13 -26 16 -40z m1746 46 c0 -2
-8 -10 -17 -17 -16 -13 -17 -12 -4 4 13 16 21 21 21 13z m803 -23 c-7 -2 -21
-2 -30 0 -10 3 -4 5 12 5 17 0 24 -2 18 -5z m-833 -16 c0 -2 -10 -12 -22 -23
l-23 -19 19 23 c18 21 26 27 26 19z m-2422 -24 c-10 -2 -28 -2 -40 0 -13 2 -5
4 17 4 22 1 32 -1 23 -4z m767 -63 c10 -11 16 -20 13 -20 -3 0 -13 9 -23 20
-10 11 -16 20 -13 20 3 0 13 -9 23 -20z m-862 -45 c-3 -9 -8 -14 -10 -11 -3 3
-2 9 2 15 9 16 15 13 8 -4z m3294 9 c-3 -3 -12 -4 -19 -1 -8 3 -5 6 6 6 11 1
17 -2 13 -5z m-2386 -31 c13 -16 12 -17 -3 -4 -10 7 -18 15 -18 17 0 8 8 3 21
-13z m-814 -19 c-3 -3 -12 -4 -19 -1 -8 3 -5 6 6 6 11 1 17 -2 13 -5z m900
-30 c-3 -3 -12 -4 -19 -1 -8 3 -5 6 6 6 11 1 17 -2 13 -5z m68 -32 c-3 -3 -11
0 -18 7 -9 10 -8 11 6 5 10 -3 15 -9 12 -12z m120 -32 c-3 -5 -12 -7 -20 -3
-21 7 -19 13 6 13 11 0 18 -4 14 -10z m849 -86 c5 -14 4 -15 -9 -4 -17 14 -19
20 -6 20 5 0 12 -7 15 -16z m-1879 -122 c-3 -3 -11 0 -18 7 -9 10 -8 11 6 5
10 -3 15 -9 12 -12z m105 -37 c-24 -25 -46 -45 -49 -45 -3 0 15 20 39 45 24
25 46 45 49 45 3 0 -15 -20 -39 -45z m2950 20 c13 -14 21 -25 18 -25 -2 0 -15
11 -28 25 -13 14 -21 25 -18 25 2 0 15 -11 28 -25z m-941 -122 c11 -24 10 -29
-10 -44 -21 -15 -22 -20 -11 -44 7 -15 18 -25 25 -22 6 3 19 8 28 11 11 5 19
-2 28 -21 11 -23 10 -29 -5 -40 -10 -7 -21 -13 -25 -13 -4 0 -2 -10 4 -22 26
-48 27 -49 50 -33 29 21 33 19 51 -15 l15 -30 -69 -35 -69 -35 -12 23 c-47 90
-113 213 -115 216 -2 2 -10 1 -19 -2 -13 -5 -8 -26 30 -133 25 -70 43 -129 42
-130 -2 -2 -20 -10 -40 -19 -44 -18 -39 -26 -92 133 -24 71 -43 112 -52 112
-11 0 -13 -10 -8 -44 l7 -45 -35 -6 c-46 -9 -53 -4 -61 45 -4 26 -11 40 -21
40 -8 0 -15 -6 -15 -12 0 -25 38 -219 43 -225 15 -14 27 11 21 46 -5 34 -4 39
17 44 13 4 34 7 47 7 22 0 23 -3 20 -57 -3 -53 -6 -59 -37 -80 -36 -25 -90
-30 -123 -12 -27 15 -43 59 -59 161 -7 48 -14 86 -16 84 -1 -1 -14 -47 -28
-102 -49 -190 -43 -174 -75 -174 -17 0 -30 5 -30 11 0 12 64 261 81 315 8 25
17 33 39 36 22 3 30 0 30 -10 0 -12 4 -11 21 4 13 12 38 19 72 21 55 3 197 51
282 96 28 14 53 26 56 27 3 0 11 -12 18 -27z m-1003 -15 c38 -19 71 -42 77
-55 8 -17 14 -20 28 -13 42 23 108 7 141 -34 16 -19 18 -20 18 -2 0 16 6 18
57 11 65 -8 104 -21 115 -38 4 -7 8 -38 8 -70 0 -72 -28 -107 -84 -107 l-35 0
-3 -62 -3 -63 -45 0 c-25 0 -44 5 -44 10 1 6 4 48 7 95 l6 85 -15 -55 c-27
-99 -63 -129 -132 -111 -79 22 -96 65 -67 171 8 30 15 56 15 56 0 1 -11 2 -25
2 -24 0 -25 -1 -9 -19 15 -17 15 -22 -11 -84 -16 -36 -32 -68 -36 -71 -4 -2
-23 3 -42 12 l-35 17 29 61 c31 64 35 86 19 86 -5 0 -23 -29 -39 -65 -16 -36
-35 -65 -41 -65 -12 0 -70 28 -70 34 0 2 23 53 51 112 28 60 59 128 70 152 10
23 21 42 24 42 3 0 35 -14 71 -32z m1865 -5 c13 -16 12 -17 -3 -4 -10 7 -18
15 -18 17 0 8 8 3 21 -13z m-110 -110 c13 -16 12 -17 -3 -4 -10 7 -18 15 -18
17 0 8 8 3 21 -13z m-2440 -50 c13 -17 13 -17 -6 -3 -11 8 -22 16 -24 17 -2 2
0 3 6 3 6 0 17 -8 24 -17z m2454 -13 c-10 -11 -22 -20 -28 -20 -5 0 1 9 14 20
31 25 37 25 14 0z m-2334 -87 c13 -16 12 -17 -3 -4 -10 7 -18 15 -18 17 0 8 8
3 21 -13z m2229 -17 c0 -2 -8 -10 -17 -17 -16 -13 -17 -12 -4 4 13 16 21 21
21 13z m-235 -58 l40 -43 -45 40 c-25 22 -47 41 -49 43 -2 1 0 2 5 2 6 0 28
-19 49 -42z m-1895 9 c0 -2 -12 -14 -27 -28 l-28 -24 24 28 c23 25 31 32 31
24z m1741 -64 c13 -16 12 -17 -3 -4 -17 13 -22 21 -14 21 2 0 10 -8 17 -17z
m-1801 3 c0 -2 -8 -10 -17 -17 -16 -13 -17 -12 -4 4 13 16 21 21 21 13z m1870
-81 c13 -14 21 -25 18 -25 -2 0 -15 11 -28 25 -13 14 -21 25 -18 25 2 0 15
-11 28 -25z m-1375 -66 c11 -16 1 -19 -13 -3 -7 8 -8 14 -3 14 5 0 13 -5 16
-11z m992 -21 c-3 -8 -6 -5 -6 6 -1 11 2 17 5 13 3 -3 4 -12 1 -19z m-1217 8
c0 -2 -8 -10 -17 -17 -16 -13 -17 -12 -4 4 13 16 21 21 21 13z m970 -36 c0 -5
-2 -10 -4 -10 -3 0 -8 5 -11 10 -3 6 -1 10 4 10 6 0 11 -4 11 -10z m-453 -6
c-3 -3 -12 -4 -19 -1 -8 3 -5 6 6 6 11 1 17 -2 13 -5z m410 -16 c-3 -8 -6 -5
-6 6 -1 11 2 17 5 13 3 -3 4 -12 1 -19z m-860 -20 c-3 -7 -5 -2 -5 12 0 14 2
19 5 13 2 -7 2 -19 0 -25z m1160 -30 c-2 -13 -4 -3 -4 22 0 25 2 35 4 23 2
-13 2 -33 0 -45z m-550 -10 c-3 -8 -6 -5 -6 6 -1 11 2 17 5 13 3 -3 4 -12 1
-19z m90 0 c-3 -8 -6 -5 -6 6 -1 11 2 17 5 13 3 -3 4 -12 1 -19z m-240 -20
c-3 -8 -6 -5 -6 6 -1 11 2 17 5 13 3 -3 4 -12 1 -19z m390 -10 c-3 -7 -5 -2
-5 12 0 14 2 19 5 13 2 -7 2 -19 0 -25z"/>
<path d="M2061 3173 c-13 -46 -14 -86 -2 -79 4 3 11 23 15 45 3 22 9 46 12 55
3 9 1 16 -4 16 -6 0 -16 -17 -21 -37z"/>
<path d="M1475 3098 c-3 -9 -1 -27 6 -40 10 -17 14 -19 16 -7 2 8 0 26 -6 40
-7 20 -10 21 -16 7z"/>
<path d="M1250 3124 c0 -6 41 -106 47 -113 2 -2 6 -1 9 2 9 8 -36 117 -47 117
-5 0 -9 -3 -9 -6z"/>
<path d="M810 2672 c0 -13 39 -46 46 -39 3 3 3 10 -1 16 -9 15 -45 33 -45 23z"/>
<path d="M620 2561 c0 -12 120 -84 128 -76 8 8 -6 19 -70 55 -32 17 -58 27
-58 21z"/>
<path d="M2910 2535 c-30 -19 -59 -36 -65 -38 -5 -2 -7 -8 -3 -12 8 -8 138 63
138 76 0 14 -11 10 -70 -26z"/>
<path d="M1722 2265 c-68 -19 -87 -32 -154 -108 -31 -35 -76 -74 -102 -87 -44
-24 -47 -24 -73 -8 -61 36 -53 94 19 144 43 30 38 50 -10 39 -69 -15 -99 -97
-68 -180 22 -57 57 -85 108 -85 50 0 77 19 137 95 42 53 59 67 108 85 32 12
72 30 89 41 45 28 63 24 111 -23 24 -23 43 -37 43 -32 0 18 -56 90 -88 113
-35 24 -48 25 -120 6z"/>
<path d="M1697 2106 c-74 -27 -121 -74 -171 -173 -14 -28 -30 -55 -36 -58 -6
-4 -26 7 -45 24 -46 40 -129 64 -137 39 -5 -15 132 -143 202 -189 138 -90 248
-90 295 0 20 40 19 73 -5 151 -27 83 -20 120 21 120 17 0 43 -7 59 -15 17 -9
30 -11 30 -5 0 19 -75 93 -107 107 -40 16 -57 16 -106 -1z m14 -97 c23 -12 69
-102 69 -135 0 -28 -10 -36 -27 -22 -11 9 -12 6 -3 -16 20 -54 4 -62 -35 -20
-30 32 -31 41 -7 47 16 4 16 5 0 6 -20 1 -33 -20 -42 -73 -4 -21 -11 -49 -16
-62 l-9 -23 -45 25 c-59 33 -70 48 -62 84 11 56 117 200 146 200 6 0 20 -5 31
-11z"/>
<path d="M2065 2000 c-12 -20 17 -80 48 -102 41 -29 47 -37 47 -73 0 -16 -4
-35 -8 -41 -10 -16 -67 -44 -89 -44 -14 -1 -12 -6 12 -26 89 -77 106 -97 103
-123 -2 -19 -11 -28 -38 -36 -19 -6 -72 -30 -118 -52 -95 -48 -151 -60 -191
-43 -38 15 -51 47 -41 101 17 91 18 121 6 116 -6 -3 -35 -15 -64 -28 -49 -20
-58 -21 -103 -10 -80 21 -77 -5 7 -54 30 -17 60 -50 94 -99 45 -68 53 -75 97
-85 34 -8 68 -9 118 -2 113 16 154 35 211 96 49 53 66 61 117 56 24 -3 22 4
-24 88 -34 64 -38 76 -25 83 42 23 62 125 29 150 -9 7 -44 41 -78 76 -59 59
-95 76 -110 52z"/>
<path d="M1104 1896 c-11 -25 -16 -43 -12 -40 12 8 40 64 36 75 -2 5 -12 -11
-24 -35z"/>
<path d="M935 1660 c3 -5 10 -10 16 -10 5 0 9 5 9 10 0 6 -7 10 -16 10 -8 0
-12 -4 -9 -10z"/>
<path d="M1436 1663 c-11 -11 -6 -23 9 -23 8 0 15 4 15 9 0 13 -16 22 -24 14z"/>
<path d="M1350 1650 c0 -5 7 -10 15 -10 8 0 15 5 15 10 0 6 -7 10 -15 10 -8 0
-15 -4 -15 -10z"/>
<path d="M976 1641 c-4 -7 -5 -15 -2 -18 9 -9 19 4 14 18 -4 11 -6 11 -12 0z"/>
<path d="M1290 1640 c0 -5 5 -10 10 -10 6 0 10 5 10 10 0 6 -4 10 -10 10 -5 0
-10 -4 -10 -10z"/>
<path d="M1482 1611 c4 -13 18 -16 19 -4 0 4 -5 9 -11 12 -7 2 -11 -2 -8 -8z"/>
<path d="M1280 1588 c0 -5 -17 -9 -37 -9 -34 -1 -32 -2 14 -9 72 -11 127 -41
200 -111 54 -52 66 -59 102 -59 23 0 41 4 41 10 0 5 -36 40 -80 77 -44 38 -80
76 -80 85 0 11 -11 19 -32 23 -43 7 -128 2 -128 -7z"/>
<path d="M1487 1564 c-8 -8 1 -24 14 -24 5 0 9 7 9 15 0 15 -12 20 -23 9z"/>
<path d="M2998 2356 c-54 -20 -94 -46 -73 -46 21 0 145 52 145 61 0 12 -6 11
-72 -15z"/>
<path d="M1325 661 c-19 -37 -19 -41 -1 -41 17 0 39 57 26 65 -5 3 -16 -8 -25
-24z"/>
<path d="M1496 578 c-8 -29 -20 -73 -26 -98 -6 -25 -13 -53 -16 -62 -3 -11 0
-18 9 -18 9 0 23 33 40 99 29 107 32 131 18 131 -5 0 -16 -24 -25 -52z"/>
<path d="M1697 553 c-5 -39 8 -68 18 -42 11 29 10 72 -1 76 -7 2 -14 -12 -17
-34z"/>
</g>
</svg>
