<?xml version="1.0" standalone="no"?>
<!DOCTYPE svg PUBLIC "-//W3C//DTD SVG 20010904//EN"
 "http://www.w3.org/TR/2001/REC-SVG-20010904/DTD/svg10.dtd">
<svg version="1.0" xmlns="http://www.w3.org/2000/svg"
 width="300.000000pt" height="300.000000pt" viewBox="0 0 300.000000 300.000000"
 preserveAspectRatio="xMidYMid meet">
<metadata>
Created by potrace 1.14, written by Peter Selinger 2001-2017
</metadata>
<g transform="translate(0.000000,300.000000) scale(0.100000,-0.100000)"
fill="#000000" stroke="none">
<path d="M1774 2814 c2 -47 7 -89 12 -94 5 -4 41 -18 79 -30 369 -119 665
-431 763 -805 28 -109 32 -134 37 -255 7 -171 -20 -320 -87 -484 -27 -67 -27
-69 -9 -92 10 -13 41 -41 69 -63 l51 -40 34 73 c88 184 126 367 123 586 -4
227 -40 376 -137 573 -168 340 -477 596 -842 697 -39 11 -77 20 -84 20 -9 0
-11 -23 -9 -86z"/>
<path d="M1075 2859 c-276 -92 -526 -284 -693 -531 -85 -124 -164 -318 -199
-488 -24 -118 -24 -382 0 -500 33 -158 122 -390 150 -390 7 0 26 17 42 36 17
20 42 49 57 65 l27 29 -20 47 c-30 69 -46 119 -64 196 -26 113 -29 146 -28
287 1 224 63 428 188 617 67 100 199 237 295 305 76 54 222 129 300 153 71 23
82 33 72 70 -5 17 -7 54 -6 83 3 63 3 63 -121 21z"/>
<path d="M967 2190 c-124 -72 -242 -173 -274 -235 l-16 -30 23 20 c46 39 59
50 74 62 30 25 172 92 208 98 39 7 43 3 51 -56 2 -8 5 -18 8 -24 4 -5 12 -28
19 -50 10 -31 49 -99 76 -134 2 -2 19 10 39 28 59 51 164 83 165 49 1 -7 19
-26 40 -43 21 -16 39 -36 40 -42 0 -24 -35 -13 -80 25 l-44 39 -33 -20 c-18
-10 -51 -40 -73 -65 -40 -45 -41 -45 -56 -24 -8 11 -21 27 -29 35 -22 23 -76
116 -100 175 l-21 53 -62 -41 c-112 -75 -186 -158 -226 -254 -14 -33 -8 -29
59 41 41 43 75 82 75 86 0 5 4 6 9 2 5 -3 30 8 54 25 54 36 65 37 76 8 12 -30
135 -174 161 -188 16 -9 25 -5 52 23 38 39 86 74 110 79 17 3 117 -51 118 -64
0 -14 -30 -8 -70 12 l-40 20 -32 -27 c-32 -29 -63 -61 -95 -101 l-18 -23 -66
61 c-37 33 -84 82 -105 110 -21 27 -44 50 -50 50 -24 0 -121 -108 -153 -171
-30 -59 -70 -162 -71 -183 0 -5 7 -3 15 4 8 7 15 17 15 22 0 6 20 41 45 78 38
57 82 104 141 150 8 5 24 -4 45 -27 40 -41 172 -143 187 -143 5 0 17 12 27 26
9 15 39 47 66 73 l49 47 55 -10 c68 -13 71 -26 7 -26 -43 0 -53 -5 -86 -37
-20 -20 -49 -56 -64 -80 -23 -36 -30 -41 -52 -36 -14 3 -28 10 -31 15 -3 6
-10 10 -15 10 -21 1 -53 19 -112 62 -67 50 -87 50 -94 3 -2 -12 -9 -21 -15
-20 -22 4 -85 -180 -98 -287 l-5 -45 23 55 c41 95 98 204 117 224 18 18 21 17
141 -43 67 -33 126 -61 131 -61 4 0 21 28 37 63 15 34 44 80 63 101 28 32 41
39 74 41 88 3 92 -28 13 -107 l-52 -52 7 -95 c4 -53 9 -128 11 -168 2 -40 6
-76 9 -82 7 -11 18 -79 17 -108 -1 -23 14 -37 39 -38 19 0 23 -52 4 -59 -9 -4
-14 2 -15 17 -1 17 -3 16 -9 -8 -13 -51 -11 -63 12 -71 30 -9 51 -31 42 -45
-9 -14 13 -28 36 -22 12 3 16 12 12 29 -3 20 0 24 18 24 15 0 20 -5 17 -14 -7
-18 18 -40 36 -33 24 9 27 46 6 58 -21 11 -17 31 5 23 13 -5 33 30 31 56 0 8
6 20 13 25 13 11 38 110 47 189 9 82 18 212 19 271 1 59 0 61 -46 103 -78 72
-75 105 8 106 43 1 49 -2 82 -41 19 -24 47 -70 63 -104 18 -38 34 -59 42 -56
98 41 123 52 125 59 2 4 9 8 16 8 7 0 30 12 51 26 45 30 71 24 95 -22 8 -16
17 -31 20 -34 3 -3 23 -45 44 -95 59 -139 56 -134 51 -90 -16 141 -60 260
-130 349 -14 18 -16 18 -62 -17 -27 -20 -53 -40 -58 -44 -21 -16 -136 -66
-140 -61 -1 2 -20 28 -42 58 -63 86 -80 98 -143 102 -57 4 -54 8 18 25 37 9
46 8 70 -11 32 -25 70 -65 96 -100 10 -14 23 -26 28 -26 13 0 115 78 168 127
25 24 50 43 56 43 15 0 124 -102 124 -116 0 -7 7 -17 15 -24 8 -7 25 -32 37
-57 22 -44 35 -59 44 -50 2 2 -13 48 -35 101 -37 90 -91 176 -112 176 -5 0 -9
5 -9 10 0 14 -51 59 -66 60 -6 0 -30 -24 -53 -53 -40 -53 -89 -102 -145 -145
l-29 -22 -15 22 c-21 32 -93 107 -114 118 -12 8 -26 5 -50 -10 -33 -20 -68
-27 -68 -12 1 13 101 67 118 64 25 -6 73 -41 108 -80 37 -41 50 -37 110 31 57
66 67 78 93 120 21 34 45 48 53 30 2 -5 23 -19 48 -32 25 -13 78 -58 118 -99
39 -41 72 -71 72 -67 0 4 -14 34 -31 66 -38 71 -99 134 -193 201 l-70 48 -24
-57 c-35 -85 -131 -223 -154 -223 -4 0 -8 6 -8 13 0 15 -48 63 -96 95 l-31 21
-23 -22 c-33 -31 -73 -57 -87 -57 -24 0 -13 21 35 65 50 47 82 55 116 30 10
-8 22 -12 26 -10 4 2 25 -11 48 -30 l41 -35 33 46 c18 25 33 49 34 53 0 3 4
13 7 21 3 8 16 45 27 83 12 37 27 67 34 67 53 0 196 -73 281 -144 47 -39 49
-39 31 -11 -20 33 -154 165 -167 165 -4 0 -14 6 -21 13 -30 30 -106 67 -123
60 -12 -4 -16 -3 -12 4 9 14 -19 37 -37 30 -9 -4 -12 -17 -10 -38 2 -18 0 -36
-6 -39 -5 -3 -11 -15 -13 -25 -2 -11 -7 -27 -10 -35 -3 -8 -15 -47 -26 -85
-32 -112 -34 -112 -115 -60 -38 25 -77 45 -86 45 -9 0 -23 -12 -31 -27 -24
-47 -78 -98 -91 -85 -8 8 -8 15 2 27 10 12 10 18 0 30 -16 20 -28 19 -26 -1 1
-13 -10 -17 -57 -19 -57 -1 -59 -1 -54 23 l5 24 -21 -20 c-15 -16 -18 -24 -9
-34 7 -9 8 -19 1 -28 -7 -12 -17 -7 -48 28 -22 23 -43 51 -46 62 -4 11 -13 20
-22 20 -17 0 -119 -56 -128 -71 -8 -12 -42 -12 -50 0 -3 6 -19 56 -36 113 -17
57 -35 108 -39 113 -5 6 -8 26 -7 45 3 47 -14 47 -96 0z"/>
<path d="M2315 1500 c3 -5 8 -10 11 -10 2 0 4 5 4 10 0 6 -5 10 -11 10 -5 0
-7 -4 -4 -10z"/>
<path d="M1450 743 c-22 -9 -31 -26 -17 -35 19 -12 24 -9 29 17 3 14 5 25 4
24 0 0 -8 -3 -16 -6z"/>
<path d="M809 607 c-34 -32 -69 -72 -83 -95 -7 -12 44 -49 145 -104 103 -58
298 -123 424 -143 130 -20 343 -15 478 11 158 30 416 142 502 217 l25 22 -58
55 c-32 30 -64 56 -70 58 -7 1 -39 -13 -70 -31 -179 -105 -358 -156 -563 -161
-63 -2 -142 0 -175 5 -32 5 -72 11 -89 14 -111 17 -309 98 -406 166 -26 18
-26 18 -60 -14z"/>
</g>
</svg>
